<?xml version="1.0" encoding="iso-8859-1"?>
<!-- Generator: Adobe Illustrator 16.0.4, SVG Export Plug-In . SVG Version: 6.00 Build 0)  -->
<!DOCTYPE svg PUBLIC "-//W3C//DTD SVG 1.1//EN" "http://www.w3.org/Graphics/SVG/1.1/DTD/svg11.dtd">
<svg version="1.1" id="Capa_1" xmlns="http://www.w3.org/2000/svg" xmlns:xlink="http://www.w3.org/1999/xlink" x="0px" y="0px"
	 width="31.663px" height="62.187px" viewBox="0 0 31.663 62.187" style="enable-background:new 0 0 31.663 62.187;"
	 xml:space="preserve">
<g id="_x37_">
	<g>
		<path d="M21.307,0H10.356C4.645,0,0,4.653,0,10.372v41.442c0,5.719,4.645,10.372,10.356,10.372h10.951
			c5.711,0,10.356-4.653,10.356-10.372V10.372C31.663,4.653,27.018,0,21.307,0z M29.206,51.814c0,4.287-3.617,7.91-7.898,7.91
			H10.356c-4.282,0-7.898-3.623-7.898-7.91V10.372c0-4.288,3.617-7.91,7.898-7.91h10.951c4.281,0,7.898,3.622,7.898,7.91V51.814z
			 M15.832,51.468c-1.355,0-2.458,1.104-2.458,2.462c0,1.356,1.103,2.462,2.458,2.462s2.458-1.105,2.458-2.462
			C18.289,52.572,17.187,51.468,15.832,51.468z M18.289,6.477h-4.915c-0.68,0-1.229,0.55-1.229,1.23s0.549,1.231,1.229,1.231h4.915
			c0.679,0,1.229-0.551,1.229-1.231S18.968,6.477,18.289,6.477z"/>
	</g>
</g>
<g>
</g>
<g>
</g>
<g>
</g>
<g>
</g>
<g>
</g>
<g>
</g>
<g>
</g>
<g>
</g>
<g>
</g>
<g>
</g>
<g>
</g>
<g>
</g>
<g>
</g>
<g>
</g>
<g>
</g>
</svg>
